<svg width="74" height="28" viewBox="0 0 74 28" fill="none" xmlns="http://www.w3.org/2000/svg">
<g clip-path="url(#clip0_908_8903)">
<path d="M70.3 13.8999C70.3 12.0999 68.8 10.5999 67 10.5999C65.2 10.5999 63.7 12.0999 63.7 13.8999C63.7 14.7999 63.7 20.5999 63.7 20.5999H60C60 20.5999 60 15.7999 60 13.8999C60 9.9999 63.1 6.8999 67 6.8999C70.9 6.8999 74 9.9999 74 13.8999C74 15.8999 74 20.5999 74 20.5999H70.4C70.3 20.5999 70.3 14.7999 70.3 13.8999Z" fill="white"/>
<path d="M44.4 13.8999C44.4 9.9999 47.5 6.8999 51.4 6.8999C55.3 6.8999 58.4 9.9999 58.4 13.8999C58.4 17.7999 55.3 20.8999 51.4 20.8999C47.6 20.8999 44.4 17.7999 44.4 13.8999ZM51.4 17.1999C53.3 17.1999 54.8 15.6999 54.8 13.7999C54.8 11.8999 53.3 10.3999 51.4 10.3999C49.5 10.3999 48 11.8999 48 13.7999C48.1 15.6999 49.6 17.2999 51.4 17.1999C51.4 17.2999 51.4 17.2999 51.4 17.1999Z" fill="white"/>
<path d="M35.7999 11.3999C35.2999 10.9999 35.3999 10.3999 36.2999 10.1999C37.8999 9.89986 39.5999 10.1999 40.9999 10.8999L42.7999 8.49986C41.3999 7.49986 39.6999 6.89986 37.9999 6.89986C37.9999 6.89986 33.9999 6.39986 32.2999 9.49986C31.4999 11.1999 32.1 13.1999 33.7 14.1999C35.4 15.2999 38.5 15.6999 39.4 16.1999C40.2999 16.6999 39.8999 17.4999 38.7999 17.6999C36.8999 17.8999 34.9999 17.3999 33.4999 16.3999L31.7 18.7999C33.2 19.8999 34.9999 20.6999 36.7999 20.8999C36.7999 20.8999 40.5999 21.5999 42.6999 18.8999C43.8999 17.2999 43.6999 14.9999 42.0999 13.7999C41.8999 13.5999 41.5999 13.4999 41.4 13.3999C39.4999 12.3999 36.6999 11.9999 35.7999 11.3999Z" fill="white"/>
<path d="M18.5 23.4001C19.6 24.1001 20.8 24.6001 22 24.7001C26 24.8001 26.3 20.6001 26.3 19.6001C25.4 20.4001 24.2 20.9001 23 20.9001C19.2 20.9001 16.1 17.9001 16 14.1001V14.0001C16 12.1001 16 7.1001 16 7.1001H19.7C19.7 7.1001 19.7 13.1001 19.7 14.0001C19.7 15.8001 21.2 17.3001 23 17.3001C24.8 17.3001 26.3 15.8001 26.3 14.0001C26.3 13.2001 26.3 7.1001 26.3 7.1001H30V14.0001C30 20.1001 30.3 26.3001 24.4 27.8001C21.7 28.4001 18.8 27.7001 16.6 25.9001L18.5 23.4001Z" fill="white"/>
<path d="M14.1 0H10.4V6.8H7C3.1 6.8 0 9.9 0 13.8C0 17.7 3.1 20.8 7 20.8C10.9 20.8 14 17.7 14 13.8C14 11.9 14 6.8 14 6.8L14.1 0ZM10.4 13.9C10.4 15.7 8.9 17.2 7 17.2C5.2 17.2 3.7 15.7 3.7 13.8C3.7 12 5.2 10.5 7 10.5H10.3L10.4 13.9Z" fill="white"/>
</g>
<defs>
<clipPath id="clip0_908_8903">
<rect width="74" height="28" fill="white"/>
</clipPath>
</defs>
</svg>
