<svg width="24" height="15" viewBox="0 0 24 15" fill="none" xmlns="http://www.w3.org/2000/svg">
<path d="M23.513 12.7192C23.4848 12.6584 23.4586 12.6081 23.4342 12.5677C23.0304 11.8405 22.2588 10.9479 21.1198 9.8896L21.0957 9.86536L21.0837 9.85348L21.0715 9.8413H21.0593C20.5423 9.34852 20.215 9.01719 20.0779 8.84755C19.8271 8.52441 19.7709 8.19731 19.908 7.86589C20.0048 7.61549 20.3686 7.08668 20.9985 6.27874C21.3299 5.85055 21.5923 5.50737 21.7861 5.24883C23.1837 3.39077 23.7896 2.20344 23.6037 1.68639L23.5315 1.56556C23.483 1.49282 23.3578 1.42627 23.1561 1.36558C22.9539 1.30501 22.6955 1.295 22.3804 1.33536L18.8907 1.35947C18.8342 1.33943 18.7535 1.3413 18.6483 1.36558C18.5432 1.38985 18.4907 1.40203 18.4907 1.40203L18.43 1.43238L18.3818 1.46884C18.3414 1.49294 18.2969 1.53534 18.2484 1.59595C18.2002 1.65634 18.1598 1.72722 18.1275 1.80798C17.7476 2.78543 17.3156 3.69422 16.8308 4.53429C16.5319 5.03522 16.2574 5.46935 16.0067 5.83693C15.7564 6.20438 15.5463 6.47511 15.3768 6.64865C15.2071 6.82236 15.0539 6.96152 14.9163 7.06665C14.7789 7.17182 14.674 7.21625 14.6014 7.2C14.5286 7.18374 14.4601 7.16762 14.3952 7.15149C14.2822 7.07874 14.1912 6.97982 14.1227 6.85461C14.0539 6.72941 14.0075 6.57183 13.9833 6.38199C13.9592 6.19203 13.9449 6.02863 13.9408 5.89125C13.9371 5.75404 13.9388 5.55996 13.947 5.30956C13.9554 5.05903 13.9592 4.88952 13.9592 4.80065C13.9592 4.49363 13.9652 4.16043 13.9772 3.80096C13.9894 3.44148 13.9993 3.15666 14.0076 2.94684C14.0158 2.7368 14.0196 2.51458 14.0196 2.2803C14.0196 2.04603 14.0054 1.8623 13.9772 1.72896C13.9493 1.59578 13.9066 1.4665 13.8503 1.34117C13.7936 1.21597 13.7107 1.11912 13.6019 1.05037C13.4928 0.981701 13.3573 0.927207 13.196 0.886718C12.7678 0.789826 12.2225 0.737412 11.56 0.729263C10.0576 0.713136 9.09215 0.810155 8.66401 1.02019C8.49437 1.10894 8.34086 1.23019 8.20361 1.38357C8.05816 1.56136 8.03788 1.65838 8.14288 1.67433C8.62764 1.74695 8.97081 1.92066 9.17279 2.1953L9.24557 2.34082C9.30219 2.44582 9.35872 2.63171 9.41529 2.89824C9.47178 3.16477 9.50824 3.45961 9.52428 3.78258C9.5646 4.37238 9.5646 4.87726 9.52428 5.29725C9.48384 5.71741 9.44564 6.04451 9.40918 6.27878C9.37273 6.51305 9.31823 6.70289 9.24557 6.84825C9.17279 6.99365 9.12436 7.08252 9.10009 7.11478C9.07585 7.14703 9.05565 7.16736 9.03961 7.17534C8.93461 7.21557 8.82541 7.23607 8.71239 7.23607C8.5992 7.23607 8.46195 7.17946 8.30042 7.06631C8.13893 6.95316 7.97133 6.79774 7.79762 6.5998C7.62391 6.40181 7.428 6.12514 7.20982 5.76974C6.9918 5.41434 6.76559 4.99431 6.53131 4.50963L6.33749 4.15814C6.21632 3.93201 6.0508 3.60276 5.84076 3.17067C5.63059 2.73841 5.44483 2.32028 5.28334 1.91637C5.21879 1.74674 5.12181 1.61759 4.99258 1.52872L4.93193 1.49226C4.89161 1.46001 4.82689 1.42576 4.73811 1.38926C4.64919 1.3528 4.55642 1.32666 4.4594 1.31057L1.1393 1.33468C0.800024 1.33468 0.569825 1.41154 0.448614 1.56505L0.400104 1.63767C0.37587 1.67811 0.363647 1.74271 0.363647 1.83162C0.363647 1.92049 0.387881 2.02956 0.436391 2.15871C0.921065 3.29782 1.44814 4.3964 2.01761 5.45462C2.58708 6.51284 3.08194 7.36526 3.50189 8.01113C3.92193 8.65746 4.35007 9.26746 4.78632 9.84083C5.22257 10.4144 5.51133 10.782 5.65262 10.9435C5.79408 11.1053 5.90518 11.2262 5.98595 11.307L6.28893 11.5978C6.4828 11.7917 6.7675 12.0239 7.14314 12.2945C7.51887 12.5652 7.93483 12.8317 8.39124 13.0945C8.84773 13.3568 9.37879 13.5709 9.98472 13.7364C10.5906 13.9022 11.1802 13.9687 11.7538 13.9366H13.1473C13.4299 13.9122 13.6441 13.8233 13.7896 13.6699L13.8378 13.6092C13.8702 13.561 13.9006 13.4861 13.9286 13.3853C13.9569 13.2843 13.971 13.1731 13.971 13.0521C13.9627 12.7048 13.9892 12.3918 14.0496 12.1131C14.11 11.8345 14.1788 11.6245 14.2558 11.483C14.3328 11.3417 14.4196 11.2225 14.5163 11.1258C14.6131 11.0289 14.6821 10.9702 14.7226 10.95C14.7628 10.9297 14.795 10.9159 14.8192 10.9076C15.0131 10.843 15.2412 10.9055 15.504 11.0956C15.7666 11.2854 16.0129 11.5198 16.2433 11.7984C16.4735 12.0772 16.7501 12.39 17.0732 12.7373C17.3965 13.0848 17.6791 13.343 17.9214 13.5129L18.1636 13.6583C18.3254 13.7553 18.5354 13.8442 18.794 13.925C19.0521 14.0057 19.2782 14.0259 19.4724 13.9855L22.5742 13.9371C22.881 13.9371 23.1198 13.8863 23.2891 13.7855C23.4588 13.6846 23.5596 13.5733 23.5921 13.4523C23.6245 13.3312 23.6263 13.1938 23.5982 13.0401C23.5695 12.8869 23.5412 12.7797 23.513 12.7192Z" fill="white"/>
</svg>
