<svg width="26" height="18" viewBox="0 0 26 18" fill="none" xmlns="http://www.w3.org/2000/svg">
<path d="M25.6225 6.95429C25.6135 6.46344 25.5742 5.84282 25.5054 5.09301C25.4362 4.34277 25.3373 3.67229 25.2086 3.08152C25.0614 2.41797 24.7417 1.85882 24.2497 1.40427C23.7576 0.949628 23.1849 0.686078 22.5315 0.613241C20.4892 0.386134 17.4029 0.272461 13.2727 0.272461C9.14238 0.272461 6.05607 0.386134 4.01386 0.613241C3.36062 0.68603 2.79017 0.949628 2.30275 1.40427C1.81514 1.85868 1.49776 2.41782 1.35054 3.08152C1.2127 3.67248 1.10908 4.34291 1.04011 5.09301C0.971241 5.84282 0.932094 6.4632 0.922959 6.95429C0.913631 7.44518 0.909088 8.12693 0.909088 8.99973C0.909088 9.87244 0.913631 10.5544 0.923007 11.0452C0.932142 11.5364 0.97129 12.1566 1.04016 12.9064C1.10913 13.6566 1.20806 14.3271 1.33686 14.9179C1.48408 15.5817 1.80369 16.1407 2.29584 16.5951C2.78809 17.0496 3.36086 17.3132 4.0139 17.386C6.05612 17.6134 9.14223 17.727 13.2727 17.727C17.4034 17.727 20.4892 17.6134 22.5316 17.386C23.1849 17.3133 23.7551 17.0496 24.2427 16.5951C24.7303 16.1407 25.0475 15.5814 25.1948 14.9179C25.3327 14.3271 25.4362 13.6566 25.5054 12.9064C25.5742 12.1567 25.6132 11.5361 25.6225 11.0452C25.6317 10.5544 25.6364 9.87244 25.6364 8.99973C25.6364 8.12693 25.6318 7.44518 25.6225 6.95429ZM18.1575 9.73612L11.0927 14.0996C10.9638 14.1905 10.8073 14.2359 10.6234 14.2359C10.4855 14.2359 10.3429 14.1994 10.1957 14.1267C9.89223 13.9633 9.74052 13.7086 9.74052 13.3633V4.63626C9.74052 4.29099 9.89228 4.03633 10.1957 3.87274C10.5086 3.70887 10.8075 3.71804 11.0927 3.90002L18.1576 8.26353C18.4334 8.4178 18.5714 8.66339 18.5714 8.99978C18.5714 9.33602 18.4334 9.58171 18.1575 9.73612Z" fill="white"/>
</svg>
