<svg width="24" height="22" viewBox="0 0 24 22" fill="none" xmlns="http://www.w3.org/2000/svg">
<path d="M0.774713 10.5827L6.13722 12.5941L8.21284 19.3025C8.34565 19.7321 8.86844 19.8909 9.21543 19.6058L12.2046 17.1569C12.5179 16.9003 12.9642 16.8875 13.2917 17.1264L18.683 21.0601C19.0542 21.3313 19.5801 21.1268 19.6732 20.6761L23.6227 1.5839C23.7243 1.0915 23.2429 0.680715 22.7763 0.862054L0.768429 9.39428C0.225321 9.60478 0.230053 10.3775 0.774713 10.5827ZM7.87833 11.5233L18.3587 5.03637C18.547 4.92012 18.7408 5.17607 18.5791 5.32685L9.92975 13.4068C9.62573 13.6912 9.42962 14.0718 9.37408 14.485L9.07944 16.6793C9.04042 16.9722 8.6309 17.0013 8.55045 16.7178L7.4173 12.7164C7.28752 12.26 7.47665 11.7725 7.87833 11.5233Z" fill="white"/>
</svg>
