<svg width="253" height="36" viewBox="0 0 253 36" fill="none" xmlns="http://www.w3.org/2000/svg">
<path d="M60.0001 18C60.0001 27.8769 51.9693 36 42.0001 36C32.1231 36 24.0001 27.8769 24.0001 18C24.0001 8.12308 32.0308 0 41.9078 0C51.9693 0 60.0001 8.12308 60.0001 18Z" fill="#F9B50B"/>
<path d="M35.9077 18.0923C35.9077 16.8 35.7231 15.5077 35.5385 14.3077H24.4615C24.5538 13.6615 24.7385 13.1077 24.9231 12.3692H34.8C34.6154 11.7231 34.3385 11.0769 34.0615 10.4308H25.6615C25.9385 9.78462 26.3077 9.23077 26.6769 8.49231H33.0462C32.6769 7.84615 32.2154 7.2 31.6615 6.55385H28.1538C28.7077 5.90769 29.2615 5.35385 30 4.70769C26.8615 1.75385 22.6154 0 17.9077 0C8.12308 0.276923 0 8.12308 0 18C0 27.8769 8.03077 36 18 36C22.7077 36 26.8615 34.1538 30.0923 31.2923C30.7385 30.7385 31.2923 30.0923 31.9385 29.3538H28.2462C27.7846 28.8 27.3231 28.1538 26.9538 27.5077H33.2308C33.6 26.9538 33.9692 26.3077 34.2462 25.5692H25.8462C25.5692 25.0154 25.2923 24.3692 25.1077 23.6308H34.9846C35.5385 21.9692 35.9077 20.1231 35.9077 18.0923Z" fill="#C8191C"/>
<path d="M24.3696 22.6163L24.6465 20.9548C24.5542 20.9548 24.3696 21.0471 24.185 21.0471C23.5388 21.0471 23.4465 20.6778 23.5388 20.4932L24.0927 17.1702H25.108L25.385 15.324H24.4619L24.6465 14.2163H22.708C22.708 14.2163 21.6003 20.4932 21.6003 21.2317C21.6003 22.3394 22.2465 22.8932 23.1696 22.8932C23.7234 22.8932 24.185 22.7086 24.3696 22.6163Z" fill="white"/>
<path d="M25.0149 19.5694C25.0149 22.2463 26.861 22.8925 28.3379 22.8925C29.7226 22.8925 30.3687 22.6156 30.3687 22.6156L30.7379 20.7694C30.7379 20.7694 29.7226 21.231 28.7072 21.231C26.5841 21.231 26.9533 19.6617 26.9533 19.6617H30.8302C30.8302 19.6617 31.1072 18.4617 31.1072 17.9079C31.1072 16.7079 30.461 15.1386 28.3379 15.1386C26.4918 15.0463 25.0149 17.1694 25.0149 19.5694ZM28.3379 16.8002C29.3533 16.8002 29.1687 18.0002 29.1687 18.0925H27.0456C27.1379 18.0002 27.3226 16.8002 28.3379 16.8002Z" fill="white"/>
<path d="M40.4304 22.6146L40.7996 20.4915C40.7996 20.4915 39.8765 20.953 39.1381 20.953C37.8458 20.953 37.1996 19.9377 37.1996 18.7377C37.1996 16.43 38.3073 15.23 39.6919 15.23C40.615 15.23 41.4458 15.7838 41.4458 15.7838L41.7227 13.753C41.7227 13.753 40.615 13.2915 39.5073 13.2915C37.2919 13.2915 35.1689 15.23 35.1689 18.83C35.1689 21.23 36.2765 22.7992 38.5842 22.7992C39.415 22.8915 40.4304 22.6146 40.4304 22.6146Z" fill="white"/>
<path d="M13.9379 15.0469C12.6456 15.0469 11.6302 15.4161 11.6302 15.4161L11.3533 17.0776C11.3533 17.0776 12.1841 16.7084 13.4764 16.7084C14.1225 16.7084 14.6764 16.8007 14.6764 17.3546C14.6764 17.7238 14.5841 17.8161 14.5841 17.8161H13.7533C12.0918 17.8161 10.3379 18.4623 10.3379 20.6776C10.3379 22.4315 11.4456 22.8007 12.1841 22.8007C13.4764 22.8007 14.1225 21.97 14.2148 21.97L14.1225 22.7084H15.6918L16.4302 17.4469C16.4302 15.1392 14.5841 15.0469 13.9379 15.0469ZM14.3072 19.293C14.3072 19.57 14.1225 21.1392 13.0148 21.1392C12.461 21.1392 12.2764 20.6776 12.2764 20.4007C12.2764 19.9392 12.5533 19.293 14.0302 19.293C14.2148 19.293 14.3072 19.293 14.3072 19.293Z" fill="white"/>
<path d="M18.2777 22.8007C18.7392 22.8007 21.1392 22.8931 21.1392 20.3084C21.1392 17.9084 18.8315 18.37 18.8315 17.4469C18.8315 16.9854 19.2007 16.8007 19.8469 16.8007C20.1238 16.8007 21.1392 16.893 21.1392 16.893L21.4161 15.1392C21.4161 15.1392 20.77 14.9546 19.57 14.9546C18.1854 14.9546 16.7084 15.5084 16.7084 17.4469C16.7084 19.6623 19.1084 19.4777 19.1084 20.3084C19.1084 20.8623 18.4623 20.9546 18.0007 20.9546C17.17 20.9546 16.2469 20.6777 16.2469 20.6777L15.97 22.4315C16.1546 22.6161 16.7084 22.8007 18.2777 22.8007Z" fill="white"/>
<path d="M56.3071 13.5703L55.9379 16.1549C55.9379 16.1549 55.1995 15.2319 54.0918 15.2319C52.3379 15.2319 50.861 17.3549 50.861 19.8472C50.861 21.4165 51.5995 22.9857 53.261 22.9857C54.3687 22.9857 55.1071 22.2472 55.1071 22.2472L55.0148 22.8934H56.9533L58.3379 13.7549L56.3071 13.5703ZM55.3841 18.5549C55.3841 19.5703 54.9225 20.9549 53.8148 20.9549C53.1687 20.9549 52.7995 20.4011 52.7995 19.3857C52.7995 17.8165 53.4456 16.8934 54.3687 16.8934C55.0148 16.9857 55.3841 17.4472 55.3841 18.5549Z" fill="white"/>
<path d="M3.50848 22.7088L4.61617 15.878L4.80078 22.7088H6.09309L8.5854 15.878L7.57001 22.7088H9.60078L11.17 13.5703H8.03155L6.09309 19.2011L6.00078 13.5703H3.23155L1.66232 22.7088H3.50848Z" fill="white"/>
<path d="M33.046 22.7084C33.5999 19.5699 33.6922 16.9853 35.0768 17.4468C35.2614 16.2468 35.5383 15.693 35.7229 15.2314H35.3537C34.5229 15.2314 33.7845 16.3391 33.7845 16.3391L33.9691 15.3238H32.1229L30.9229 22.7084H33.046Z" fill="white"/>
<path d="M44.8607 15.0469C43.5684 15.0469 42.553 15.4161 42.553 15.4161L42.2761 17.0776C42.2761 17.0776 43.1069 16.7084 44.3992 16.7084C45.0453 16.7084 45.5992 16.8007 45.5992 17.3546C45.5992 17.7238 45.5069 17.8161 45.5069 17.8161H44.6761C43.0146 17.8161 41.2607 18.4623 41.2607 20.6776C41.2607 22.4315 42.3684 22.8007 43.1069 22.8007C44.3992 22.8007 45.0453 21.97 45.1376 21.97L45.0453 22.7084H46.7992L47.5376 17.4469C47.5376 15.1392 45.5069 15.0469 44.8607 15.0469ZM45.3222 19.293C45.3222 19.57 45.1376 21.1392 44.0299 21.1392C43.4761 21.1392 43.2915 20.6776 43.2915 20.4007C43.2915 19.9392 43.5684 19.293 45.0453 19.293C45.2299 19.293 45.2299 19.293 45.3222 19.293Z" fill="white"/>
<path d="M49.016 22.7084C49.5698 19.5699 49.6621 16.9853 51.0467 17.4468C51.2313 16.2468 51.5083 15.693 51.6929 15.2314H51.3237C50.4929 15.2314 49.7544 16.3391 49.7544 16.3391L49.939 15.3238H48.0929L46.8929 22.7084H49.016Z" fill="white"/>
<path d="M146.585 8.58398H142.616C141.416 8.58398 140.493 8.95322 139.939 10.1532L132.37 27.4148H137.723C137.723 27.4148 138.646 25.1071 138.831 24.5532C139.385 24.5532 144.646 24.5532 145.385 24.5532C145.57 25.1994 146.031 27.3224 146.031 27.3224H150.831L146.585 8.58398ZM140.308 20.6763C140.77 19.5686 142.339 15.4148 142.339 15.4148C142.339 15.5071 142.8 14.3071 142.985 13.6609L143.354 15.3224C143.354 15.3224 144.37 19.8455 144.554 20.7686H140.308V20.6763Z" fill="#3362AB"/>
<path d="M132.739 21.2307C132.739 25.1076 129.231 27.6922 123.785 27.6922C121.477 27.6922 119.262 27.2307 118.062 26.6768L118.801 22.4307L119.447 22.7076C121.108 23.4461 122.216 23.723 124.247 23.723C125.724 23.723 127.293 23.1692 127.293 21.8768C127.293 21.0461 126.647 20.4922 124.616 19.5692C122.677 18.6461 120.093 17.1692 120.093 14.4922C120.093 10.7999 123.693 8.30762 128.77 8.30762C130.708 8.30762 132.37 8.67685 133.385 9.13839L132.647 13.1999L132.277 12.8307C131.354 12.4615 130.154 12.0922 128.401 12.0922C126.462 12.1845 125.539 13.0153 125.539 13.7538C125.539 14.5845 126.647 15.2307 128.401 16.0615C131.354 17.4461 132.739 19.0153 132.739 21.2307Z" fill="#3362AB"/>
<path d="M87.6923 8.76962L87.7846 8.40039H95.7231C96.8308 8.40039 97.6616 8.76962 97.9385 9.96962L99.6923 18.2773C97.9385 13.8465 93.8769 10.2465 87.6923 8.76962Z" fill="#F9B50B"/>
<path d="M110.862 8.5845L102.831 27.323H97.3846L92.7693 11.6306C96.0923 13.7537 98.8616 17.0768 99.8769 19.3845L100.431 21.323L105.415 8.49219H110.862V8.5845Z" fill="#3362AB"/>
<path d="M112.985 8.49219H118.062L114.831 27.323H109.754L112.985 8.49219Z" fill="#3362AB"/>
<path fill-rule="evenodd" clip-rule="evenodd" d="M185.408 7.84966C186.073 7.84568 188.05 7.66765 188.887 10.4935C189.451 12.397 190.349 15.515 191.582 19.8476H192.084C193.407 15.2799 194.315 12.1619 194.809 10.4935C195.655 7.63821 197.77 7.84971 198.616 7.84971L205.143 7.84972V28.1538H198.491V16.1883H198.045L194.336 28.1538H189.331L185.622 16.1794H185.176V28.1538H178.523V7.84972L185.408 7.84966ZM214.696 7.84972V19.8242H215.227L219.738 9.97767C220.614 8.01818 222.48 7.84972 222.48 7.84972H228.918V28.1539H222.126V16.1794H221.596L217.173 26.0259C216.297 27.9766 214.343 28.1539 214.343 28.1539H207.905V7.84972H214.696ZM252.393 17.4984C251.445 20.183 248.47 22.1056 245.176 22.1056H238.054V28.1539H231.596V17.4984H252.393Z" fill="#0F754E"/>
<path fill-rule="evenodd" clip-rule="evenodd" d="M245.487 7.8501H231.256C231.594 12.3705 235.487 16.2402 239.517 16.2402H252.84C253.609 12.4833 250.962 7.8501 245.487 7.8501Z" fill="url(#paint0_linear_1836_10087)"/>
<defs>
<linearGradient id="paint0_linear_1836_10087" x1="252.971" y1="13.1279" x2="231.256" y2="13.1279" gradientUnits="userSpaceOnUse">
<stop stop-color="#1F5CD7"/>
<stop offset="1" stop-color="#02AEFF"/>
</linearGradient>
</defs>
</svg>
