<svg width="80" height="80" viewBox="0 0 80 80" fill="none" xmlns="http://www.w3.org/2000/svg">
<path fill-rule="evenodd" clip-rule="evenodd" d="M30.0221 12.082C29.5273 12.2736 7.44538 26.0428 7.23327 26.292C6.89628 26.6878 6.9292 27.3907 7.301 27.7379C7.94653 28.3404 30.0113 41.9222 30.3448 41.9222C30.5314 41.9222 30.8553 41.7732 31.0643 41.5909L31.4443 41.2597L31.4851 37.9514L31.5257 34.6431H40.369C48.727 34.6431 49.2695 34.6579 50.2566 34.9139C52.7223 35.5534 54.9417 37.3644 56.0148 39.6128C56.6625 40.9693 56.9712 42.2693 56.9712 43.639C56.9712 47.0547 54.9995 50.2881 52.0322 51.7387C50.0431 52.7111 50.5161 52.6722 39.5929 52.7608L29.7271 52.8409L29.4683 53.1651C29.2212 53.4746 29.2095 53.8006 29.2095 60.3336V67.1777L29.5363 67.5631L29.8631 67.9485L38.9837 67.9897C48.5039 68.0327 50.5493 67.9562 52.9088 67.4686C56.4166 66.7437 59.8654 65.1246 62.7621 62.8428C67.2899 59.276 70.33 54.3288 71.5545 48.5351C72.0234 46.3162 72.1412 42.6619 71.8166 40.4114C70.9978 34.7365 68.6638 30.0917 64.667 26.1836C63.1489 24.6992 62.1657 23.9237 60.4832 22.8834C58.1114 21.4169 55.5394 20.3938 52.7053 19.7895C51.2445 19.478 51.0532 19.472 41.3658 19.4296L31.512 19.3863V16.2976C31.512 12.8972 31.4178 12.3698 30.7648 12.1182C30.3771 11.9687 30.3217 11.966 30.0221 12.082Z" fill="#090909"/>
</svg>
