<svg width="22" height="22" viewBox="0 0 22 22" fill="none" xmlns="http://www.w3.org/2000/svg">
<path fill-rule="evenodd" clip-rule="evenodd" d="M11 20C15.9706 20 20 15.9706 20 11C20 6.02944 15.9706 2 11 2C6.02944 2 2 6.02944 2 11C2 15.9706 6.02944 20 11 20ZM11 22C17.0751 22 22 17.0751 22 11C22 4.92487 17.0751 0 11 0C4.92487 0 0 4.92487 0 11C0 17.0751 4.92487 22 11 22Z" fill="black"/>
<path fill-rule="evenodd" clip-rule="evenodd" d="M17.2072 8.20718L9.50008 15.9143L4.79297 11.2072L6.20718 9.79297L9.50008 13.0859L15.793 6.79297L17.2072 8.20718Z" fill="black"/>
</svg>
