<svg width="24" height="24" viewBox="0 0 24 24" fill="none" xmlns="http://www.w3.org/2000/svg">
<path fill-rule="evenodd" clip-rule="evenodd" d="M13.0451 0.016037C14.6198 0.178868 15.9184 0.544957 17.2671 1.20608C18.5068 1.81379 19.5066 2.52819 20.4818 3.50307C21.4569 4.47799 22.1715 5.47754 22.7794 6.71683C23.3408 7.86148 23.6917 8.97949 23.8907 10.2577C24.021 11.0949 24.0079 13.0221 23.8663 13.8454C23.6327 15.2031 23.2646 16.3304 22.6686 17.5137L22.5045 17.8394L23.2522 20.6016L24 23.3638L23.6818 23.6819L23.3637 24L20.6007 23.2524L17.8377 22.5049L17.512 22.6689C16.3283 23.2648 15.2008 23.6328 13.8426 23.8663C13.0192 24.0079 11.0914 24.021 10.2539 23.8907C8.97542 23.6918 7.85711 23.341 6.71215 22.7797C5.47252 22.172 4.47271 21.4576 3.49752 20.4827C2.52238 19.5078 1.80779 18.5082 1.19991 17.269C0.638247 16.1238 0.286884 15.004 0.0888729 13.7281C-0.0296249 12.9648 -0.0296249 11.021 0.0888729 10.2577C0.286884 8.98178 0.638247 7.86199 1.19991 6.71683C1.80779 5.47754 2.52238 4.47799 3.49752 3.50307C4.47271 2.52819 5.47252 1.81379 6.71215 1.20608C7.84252 0.651979 8.97617 0.294097 10.207 0.102893C10.6808 0.0293092 12.6042 -0.0295951 13.0451 0.016037Z" fill="black"/>
<path d="M15.75 5.25H13.5851V9.41827H11.5957C9.31383 9.41827 7.5 11.3185 7.5 13.7091C7.5 16.0998 9.31383 18 11.5957 18C13.8777 18 15.6915 16.0998 15.6915 13.7091C15.6915 12.5445 15.6915 9.41827 15.6915 9.41827L15.75 5.25ZM13.5851 13.7704C13.5851 14.8738 12.7074 15.7933 11.5957 15.7933C10.5426 15.7933 9.66489 14.8738 9.66489 13.7091C9.66489 12.6058 10.5426 11.6863 11.5957 11.6863H13.5266L13.5851 13.7704Z" fill="white"/>
</svg>
