<svg width="24" height="24" viewBox="0 0 24 24" fill="none" xmlns="http://www.w3.org/2000/svg">
<path fill-rule="evenodd" clip-rule="evenodd" d="M11.3323 2.03839C8.87562 2.20175 6.62112 3.24308 4.87845 5.01936C4.32663 5.58186 4.08134 5.88336 3.64835 6.5315C2.85968 7.71214 2.31813 9.14459 2.09585 10.6383C1.98893 11.3567 1.98888 12.6749 2.09571 13.4039C2.30257 14.8149 2.8203 16.227 3.54776 17.3642L3.80224 17.7619L4.01613 17.3173C4.13379 17.0727 4.7442 15.7863 5.3726 14.4586L6.51513 12.0445L4.0294 12.0195L4.05593 11.4929C4.10327 10.5522 4.38255 9.47984 4.82187 8.55237C5.55166 7.01154 7.00249 5.56072 8.54332 4.83092C9.09879 4.56781 9.82404 4.32425 10.4651 4.18545C10.8951 4.0924 11.0907 4.0789 12.012 4.0789C13.1715 4.0789 13.541 4.13192 14.4908 4.43468C15.3131 4.69686 16.3178 5.23545 17.0042 5.7822C17.6251 6.27668 18.4523 7.22703 18.8736 7.92982C19.306 8.65114 19.6937 9.68304 19.8737 10.5914C20.0048 11.2532 19.9904 12.906 19.8478 13.5623C19.5307 15.0222 18.8912 16.309 17.9833 17.314C16.7809 18.6449 15.3519 19.4653 13.5533 19.8572C13.1285 19.9498 12.9327 19.9632 12.012 19.9632C11.0907 19.9632 10.8951 19.9497 10.4651 19.8567C9.00077 19.5397 7.63352 18.8498 6.66429 17.9388C6.45185 17.7391 6.27068 17.5975 6.26177 17.624C6.25282 17.6505 6.05585 18.0699 5.82405 18.5559C5.5923 19.0419 5.40265 19.4647 5.40265 19.4953C5.40265 19.6517 6.77224 20.5955 7.5589 20.9814C9.03349 21.7047 10.3954 22.0192 12.0355 22.0152C12.975 22.0128 13.5993 21.9379 14.4559 21.7248C17.993 20.8448 20.8357 18.002 21.7158 14.4649C21.9325 13.594 22.0042 12.9863 22.0042 12.0211C22.0042 10.3679 21.6859 9.00692 20.9573 7.54451C20.4784 6.58315 19.9274 5.81464 19.1464 5.01861C17.0809 2.91336 14.274 1.84283 11.3323 2.03839Z" fill="#090909"/>
<path d="M11.1624 12.7799V14.0549H13.8156V15.6621H11.1624V17.0625H9.16023V15.6621H7.96875V14.0549H9.16023V6.98437H12.2971C13.4681 6.98437 14.3812 7.23047 15.0363 7.72266C15.6996 8.21484 16.0312 8.93672 16.0312 9.88828C16.0312 10.8316 15.6996 11.5494 15.0363 12.0416C14.3812 12.5338 13.4681 12.7799 12.2971 12.7799H11.1624ZM14.0168 9.90058C14.0168 9.48223 13.8653 9.1623 13.5623 8.94082C13.2675 8.71934 12.8417 8.60859 12.2849 8.60859H11.1624V11.2172H12.2849C12.8417 11.2172 13.2675 11.1064 13.5623 10.885C13.8653 10.6553 14.0168 10.3271 14.0168 9.90058Z" fill="#090909"/>
</svg>
