<svg width="24" height="24" viewBox="0 0 24 24" fill="none" xmlns="http://www.w3.org/2000/svg">
<path fill-rule="evenodd" clip-rule="evenodd" d="M3.84439 10.2617C3.84439 16.1383 3.88654 20.5234 3.94308 20.5234C3.99738 20.5234 5.86653 19.7886 8.09687 18.8905C10.3272 17.9924 12.2523 17.2573 12.375 17.257C12.4977 17.2568 14.42 17.9916 16.6469 18.89C18.8738 19.7883 20.743 20.5234 20.8007 20.5234C20.8655 20.5234 20.9056 16.598 20.9056 10.2617V0H12.375H3.84439V10.2617ZM13.7874 5.34561C13.9915 5.4655 14.2759 5.73746 14.4196 5.94998C14.6349 6.2686 14.6729 6.44467 14.6359 6.95327C14.5767 7.76938 14.3415 8.23054 13.2961 9.58071L12.4215 10.7103L13.5412 10.7422L14.661 10.7742V11.1404C14.661 11.3418 14.6008 11.5671 14.5272 11.6411C14.4326 11.7362 13.7788 11.7757 12.2969 11.7757C11.1439 11.7757 10.2005 11.7483 10.2005 11.7149C10.2005 11.6815 10.7795 10.901 11.487 9.98064C12.1947 9.06034 12.8965 8.09092 13.0469 7.82658C13.5693 6.90751 13.3023 6.16822 12.448 6.16822C11.9713 6.16822 11.7124 6.37996 11.5911 6.86916C11.5194 7.15794 11.4762 7.17757 10.9133 7.17757C10.3182 7.17757 10.312 7.17409 10.312 6.83753C10.312 6.08322 10.7473 5.48579 11.5034 5.20239C12.0843 4.9846 13.3029 5.06097 13.7874 5.34561ZM7.97031 20.4491L3.78863 22.1495L3.75629 23.0748C3.73845 23.5836 3.75986 24 3.8038 24C3.84785 24 5.77956 23.243 8.09654 22.3178C10.4134 21.3925 12.3388 20.6355 12.375 20.6355C12.4112 20.6355 14.3366 21.3925 16.6535 22.3178C18.9704 23.243 20.9022 24 20.9462 24C20.9901 24 21.0115 23.5836 20.9937 23.0748L20.9614 22.1495L16.7797 20.4491C14.4798 19.5138 12.4977 18.7486 12.375 18.7486C12.2523 18.7486 10.2702 19.5138 7.97031 20.4491Z" fill="black"/>
</svg>
