<svg width="24" height="24" viewBox="0 0 24 24" fill="none" xmlns="http://www.w3.org/2000/svg">
<path fill-rule="evenodd" clip-rule="evenodd" d="M24 11.8877V19.5752H15.3516H6.70312V17.2783V14.9814H5.25H3.79688V14.2549V13.5283H5.25H6.70312V13.0834V12.6385L4.30078 12.6264L1.89844 12.6143V11.8877V11.1611L4.30078 11.149L6.70312 11.1369V10.692V10.2471H3.35156H0V9.52051V8.79395H3.35156H6.70312V6.49707V4.2002H9.86719H13.0312V6.35645V8.5127H15.3516H17.6719V6.35645V4.2002H20.8359H24V11.8877ZM16.2913 4.2593C16.3037 4.29179 16.3083 4.95099 16.3015 5.72415L16.2891 7.12988H15.375H14.4609L14.4486 5.66504L14.4362 4.2002H15.3524C16.0463 4.2002 16.2741 4.21454 16.2913 4.2593ZM6.75 9.49707V10.2002H9.35156H11.9531V9.49707V8.79395H9.35156H6.75V9.49707ZM6.75 11.8877V12.5908H9.35156H11.9531V11.8877V11.1846H9.35156H6.75V11.8877ZM6.75 14.2783V14.9814H9.35156H11.9531V14.2783V13.5752H9.35156H6.75V14.2783Z" fill="#090909"/>
</svg>
