<svg width="24" height="24" viewBox="0 0 24 24" fill="none" xmlns="http://www.w3.org/2000/svg">
<mask id="path-1-inside-1_1412_13073" fill="white">
<rect x="1" y="1" width="6" height="6" rx="1"/>
</mask>
<rect x="1" y="1" width="6" height="6" rx="1" stroke="white" stroke-width="3" mask="url(#path-1-inside-1_1412_13073)"/>
<mask id="path-2-inside-2_1412_13073" fill="white">
<rect x="1" y="9" width="6" height="6" rx="1"/>
</mask>
<rect x="1" y="9" width="6" height="6" rx="1" stroke="white" stroke-width="3" mask="url(#path-2-inside-2_1412_13073)"/>
<mask id="path-3-inside-3_1412_13073" fill="white">
<rect x="1" y="17" width="6" height="6" rx="1"/>
</mask>
<rect x="1" y="17" width="6" height="6" rx="1" stroke="white" stroke-width="3" mask="url(#path-3-inside-3_1412_13073)"/>
<mask id="path-4-inside-4_1412_13073" fill="white">
<rect x="9" y="1" width="6" height="6" rx="1"/>
</mask>
<rect x="9" y="1" width="6" height="6" rx="1" stroke="white" stroke-width="3" mask="url(#path-4-inside-4_1412_13073)"/>
<mask id="path-5-inside-5_1412_13073" fill="white">
<rect x="9" y="9" width="6" height="6" rx="1"/>
</mask>
<rect x="9" y="9" width="6" height="6" rx="1" stroke="white" stroke-width="3" mask="url(#path-5-inside-5_1412_13073)"/>
<mask id="path-6-inside-6_1412_13073" fill="white">
<rect x="9" y="17" width="6" height="6" rx="1"/>
</mask>
<rect x="9" y="17" width="6" height="6" rx="1" stroke="white" stroke-width="3" mask="url(#path-6-inside-6_1412_13073)"/>
<mask id="path-7-inside-7_1412_13073" fill="white">
<rect x="17" y="1" width="6" height="6" rx="1"/>
</mask>
<rect x="17" y="1" width="6" height="6" rx="1" stroke="white" stroke-width="3" mask="url(#path-7-inside-7_1412_13073)"/>
<mask id="path-8-inside-8_1412_13073" fill="white">
<rect x="17" y="9" width="6" height="6" rx="1"/>
</mask>
<rect x="17" y="9" width="6" height="6" rx="1" stroke="white" stroke-width="3" mask="url(#path-8-inside-8_1412_13073)"/>
<mask id="path-9-inside-9_1412_13073" fill="white">
<rect x="17" y="17" width="6" height="6" rx="1"/>
</mask>
<rect x="17" y="17" width="6" height="6" rx="1" stroke="white" stroke-width="3" mask="url(#path-9-inside-9_1412_13073)"/>
</svg>
