<svg width="22" height="22" viewBox="0 0 22 22" fill="none" xmlns="http://www.w3.org/2000/svg">
<path fill-rule="evenodd" clip-rule="evenodd" d="M11 20C15.9706 20 20 15.9706 20 11C20 6.02944 15.9706 2 11 2C6.02944 2 2 6.02944 2 11C2 15.9706 6.02944 20 11 20ZM11 22C17.0751 22 22 17.0751 22 11C22 4.92487 17.0751 0 11 0C4.92487 0 0 4.92487 0 11C0 17.0751 4.92487 22 11 22Z" fill="black"/>
<path fill-rule="evenodd" clip-rule="evenodd" d="M9.58586 11.0001L6.29297 7.70718L7.70718 6.29297L11.0001 9.58586L14.293 6.29297L15.7072 7.70718L12.4143 11.0001L15.7072 14.293L14.293 15.7072L11.0001 12.4143L7.70718 15.7072L6.29297 14.293L9.58586 11.0001Z" fill="black"/>
</svg>
