<svg width="100" height="100" viewBox="0 0 100 100" fill="none" xmlns="http://www.w3.org/2000/svg">
<path fill-rule="evenodd" clip-rule="evenodd" d="M50 95.3333C73.9323 95.3333 95.3333 73.9323 95.3333 50C95.3333 26.0677 73.9323 4.66667 50 4.66667C26.0677 4.66667 4.66667 26.0677 4.66667 50C4.66667 73.9323 26.0677 95.3333 50 95.3333ZM50 100C77.6142 100 100 77.6142 100 50C100 22.3858 77.6142 0 50 0C22.3858 0 0 22.3858 0 50C0 77.6142 22.3858 100 50 100Z" fill="#090909"/>
<path d="M67.1055 50L42.1055 64.4737L42.1055 35.5263L67.1055 50Z" fill="#090909"/>
</svg>
