<svg width="50" height="50" viewBox="0 0 50 50" fill="none" xmlns="http://www.w3.org/2000/svg">
<path fill-rule="evenodd" clip-rule="evenodd" d="M19.3965 10.0439C19.1301 10.1466 7.23982 17.523 7.12561 17.6564C6.94415 17.8685 6.96187 18.245 7.16207 18.431C7.50967 18.7538 19.3907 26.0297 19.5703 26.0297C19.6708 26.0297 19.8451 25.9499 19.9577 25.8523L20.1623 25.6748L20.1843 23.9025L20.2062 22.1302H24.9679C29.4684 22.1302 29.7605 22.1382 30.292 22.2753C31.6197 22.6179 32.8148 23.588 33.3926 24.7926C33.7414 25.5193 33.9076 26.2157 33.9076 26.9494C33.9076 28.7793 32.8459 30.5115 31.2481 31.2886C30.1771 31.8095 30.4318 31.7887 24.55 31.8361L19.2377 31.879L19.0983 32.0528C18.9653 32.2185 18.9589 32.3932 18.9589 35.893V39.5595L19.1349 39.766L19.3109 39.9724L24.222 39.9945C29.3483 40.0175 30.4496 39.9765 31.7201 39.7153C33.6089 39.327 35.466 38.4596 37.0257 37.2372C39.4638 35.3265 41.1008 32.6762 41.7601 29.5724C42.0126 28.3837 42.076 26.426 41.9012 25.2204C41.4603 22.1802 40.2036 19.692 38.0515 17.5984C37.234 16.8032 36.7046 16.3877 35.7987 15.8304C34.5215 15.0448 33.1366 14.4967 31.6106 14.173C30.824 14.0061 30.7209 14.0029 25.5046 13.9801L20.1988 13.9569V12.3023C20.1988 10.4806 20.148 10.1981 19.7964 10.0633C19.5877 9.98324 19.5579 9.98177 19.3965 10.0439Z" fill="black"/>
</svg>
