<svg width="50" height="50" viewBox="0 0 50 50" fill="none" xmlns="http://www.w3.org/2000/svg">
<path fill-rule="evenodd" clip-rule="evenodd" d="M12.4311 5.43669C11.9546 5.54998 11.2643 5.93912 10.9087 6.29487C10.4429 6.76069 10.1689 7.29966 10.078 7.92849C10.0302 8.25901 10.0025 14.5978 10.0003 25.6457C10.0026 36.976 10.0222 37.6432 10.1327 37.6134C10.2064 37.5935 13.3113 35.5557 17.0326 33.0849C20.7537 30.6143 23.8836 28.5715 23.9878 28.5452C24.092 28.519 24.3569 28.5127 24.5765 28.5309C24.9553 28.5623 25.3399 28.8011 31.9837 33.1293C35.8379 35.6402 39.0175 37.6783 39.0494 37.6586C39.0836 37.6376 39.1018 32.4694 39.1063 26.0233C39.1005 17.0984 39.0728 8.23672 39.0282 7.92849C38.8844 6.9335 38.2719 6.14587 37.2696 5.66719L36.6946 5.39257L24.7063 5.38054C17.9117 5.37372 12.5937 5.398 12.4311 5.43669ZM10.1327 44.4798C10.0077 44.5136 9.99899 43.6545 10.0001 27.4536C10.0012 40.0634 10.018 40.7821 10.1327 40.7511C10.2064 40.7312 13.3113 38.6933 17.0326 36.2225C20.7537 33.7519 23.8836 31.7091 23.9878 31.6829C24.092 31.6566 24.3569 31.6503 24.5765 31.6685C24.9553 31.6999 25.3399 31.9387 31.9837 36.267C35.8379 38.7778 39.0175 40.816 39.0494 40.7963C39.0863 40.7735 39.1046 34.7577 39.1071 27.6095C39.1103 36.2618 39.0926 44.4984 39.0495 44.5251C39.0175 44.5448 35.8379 42.5066 31.9837 39.9956C25.34 35.6674 24.9553 35.4286 24.5766 35.3972C24.3569 35.379 24.092 35.3855 23.9878 35.4117C23.8836 35.4378 20.7538 37.4806 17.0326 39.9514C13.3114 42.422 10.2064 44.4599 10.1327 44.4798ZM27.728 16.6211C27.0063 16.0145 25.8827 15.7111 24.357 15.7111H23.4755L23.6456 13.6598H28.1609V11.6547H21.5581L21.0014 17.7317H23.7694C24.6971 17.7317 25.3466 17.8499 25.7177 18.0864C26.0992 18.3229 26.2899 18.6725 26.2899 19.1352C26.2899 19.5774 26.1095 19.9218 25.7487 20.1686C25.3878 20.4154 24.893 20.5388 24.2642 20.5388C23.6972 20.5388 23.1457 20.4565 22.6096 20.292C22.0735 20.1172 21.5993 19.8756 21.187 19.5671L20.1973 21.4796C20.7128 21.8498 21.3365 22.1377 22.0684 22.3434C22.8106 22.5387 23.5632 22.6364 24.326 22.6364C25.3157 22.6364 26.1455 22.477 26.8156 22.1583C27.496 21.8292 28.0011 21.3974 28.331 20.8627C28.6609 20.3177 28.8258 19.7162 28.8258 19.0581C28.8258 18.0401 28.4599 17.2278 27.728 16.6211Z" fill="black"/>
</svg>
