<svg width="50" height="50" viewBox="0 0 50 50" fill="none" xmlns="http://www.w3.org/2000/svg">
<path fill-rule="evenodd" clip-rule="evenodd" d="M29.6118 10.7836C27.0129 11.919 25.4696 12.6311 25.3454 12.7519C24.9839 13.1038 24.9851 13.0888 25.0193 16.8303C25.0529 20.5098 25.084 20.9267 25.4318 22.3545C26.3181 25.9935 28.5682 28.747 32.727 31.2818C33.9944 32.0543 34.0053 32.0543 35.273 31.2822C40.2258 28.2659 42.4596 25.004 42.9281 20.1041C42.9656 19.7112 42.9972 18.0138 42.9982 16.3322C43.0001 13.045 43.0037 13.0798 42.6299 12.7251C42.535 12.6351 40.6153 11.7591 38.3638 10.7784C35.1135 9.36265 34.2098 8.99631 33.9769 9.00003C33.7558 9.00353 32.681 9.44266 29.6118 10.7836ZM8.40871 16.0108C7.88284 16.2159 7.35086 16.7636 7.15145 17.3051C7.00703 17.6973 7 17.8317 7 20.214V22.7116H15.1211C19.5877 22.7116 23.2422 22.6976 23.2422 22.6806C23.2422 22.6635 23.1935 22.4145 23.134 22.1272C22.9259 21.1218 22.8143 19.8022 22.7714 17.8359L22.7281 15.8535L15.7605 15.8572C8.85773 15.8609 8.78938 15.8624 8.40871 16.0108ZM37.9919 16.0808C38.3878 16.3279 38.5685 16.8639 38.4119 17.3259C38.2669 17.7534 33.6411 23.5962 33.3491 23.7206C33.0351 23.8543 32.5928 23.8325 32.3162 23.6695C32.0305 23.5011 29.6204 19.8761 29.5472 19.5046C29.3932 18.722 30.1422 18.002 30.8959 18.2081C31.2821 18.3139 31.4335 18.4828 32.2397 19.7074C32.6347 20.3075 32.9822 20.7709 33.012 20.7371C33.0416 20.7033 33.8334 19.6951 34.7713 18.4968C35.7092 17.2984 36.5601 16.245 36.6621 16.1559C37.0354 15.8302 37.5446 15.8014 37.9919 16.0808ZM7 33.2104C7 39.1034 7.00084 39.1396 7.15145 39.5484C7.35578 40.1034 7.88249 40.6385 8.42868 40.8461L8.8334 41H25H41.1666L41.5713 40.8461C42.1175 40.6385 42.6442 40.1034 42.8485 39.5484C42.9992 39.1396 43 39.1034 43 33.2104C43 29.9508 42.9746 27.2837 42.9435 27.2837C42.9125 27.2837 42.7484 27.4846 42.5788 27.7302C41.4374 29.3837 39.8083 30.9284 37.6562 32.3975C35.5877 33.8096 34.9977 34.0856 34.0352 34.0916C33.2908 34.0963 32.781 33.9376 31.9609 33.4461C29.1759 31.777 27.0241 29.927 25.6287 28.002L25.108 27.2837H16.054H7V33.2104ZM17.685 32.0369C18.0138 32.2332 18.207 32.5882 18.2056 32.9933C18.2041 33.4155 18.0387 33.7288 17.7068 33.9385C17.4438 34.1046 17.42 34.1064 15.0359 34.1275C13.4913 34.1412 12.5309 34.1217 12.3527 34.0729C11.3251 33.7917 11.2456 32.3245 12.2383 31.9614C12.4664 31.878 12.9848 31.8617 14.9805 31.875C17.313 31.8907 17.4541 31.8991 17.685 32.0369Z" fill="black"/>
</svg>
