<svg width="50" height="50" viewBox="0 0 50 50" fill="none" xmlns="http://www.w3.org/2000/svg">
<path fill-rule="evenodd" clip-rule="evenodd" d="M5.77363 8.2222C5.59238 8.34427 5.34414 8.59251 5.22207 8.77376L5 9.10325V23.6251V38.147L5.22207 38.4765C5.34414 38.6577 5.59238 38.906 5.77363 39.0281C6.08848 39.2403 6.18828 39.2501 8.01738 39.2505L9.93164 39.2508L10.2574 39.8809C10.8496 41.0262 11.9411 41.9085 13.1577 42.2254C15.2862 42.7798 17.4959 41.8085 18.493 39.8801L18.8184 39.2508H23.75H28.6816L29.0074 39.8809C29.5996 41.0262 30.6911 41.9085 31.9077 42.2254C34.0362 42.7798 36.2459 41.8085 37.243 39.8801L37.5684 39.2508L41.0451 39.2505C44.4994 39.2501 44.524 39.2487 44.8514 39.0281C45.0326 38.906 45.2809 38.6577 45.4029 38.4765L45.625 38.147V33.2298V28.3126H40.1562H34.6875V26.7501V25.1876H40.1562H45.625L45.6235 23.9913C45.6227 23.2657 45.5635 22.5453 45.4729 22.1603C45.0071 20.1781 43.4047 18.4142 41.4069 17.6848C40.7004 17.4269 40.6637 17.424 37.6904 17.3934L34.6875 17.3624V14.7037C34.6875 11.7568 34.6251 11.3077 34.0842 10.3622C33.7058 9.70091 32.907 8.90638 32.2744 8.56204C31.1989 7.97669 31.7781 8.00013 18.3729 8.00013H6.10313L5.77363 8.2222ZM26.3819 19.476C26.6824 19.7741 26.7228 19.8764 26.7547 20.4237C26.7852 20.9445 26.7563 21.0846 26.5643 21.3502C26.4397 21.5224 24.5201 23.1151 22.2983 24.8896C17.9693 28.347 17.8609 28.4161 17.085 28.2098C16.7382 28.1176 16.392 27.824 14.9796 26.4239C14.05 25.5022 13.2004 24.6052 13.0916 24.4305C12.8778 24.087 12.8313 23.4467 12.9904 23.0392C13.1104 22.7319 13.5695 22.302 13.8771 22.2088C14.2495 22.0959 14.8249 22.1351 15.1246 22.2937C15.2763 22.374 15.9009 22.9439 16.5125 23.5601L17.6246 24.6806L21.0047 21.9752C22.8638 20.4872 24.4469 19.232 24.5228 19.1858C25.0504 18.8645 25.8986 18.9969 26.3819 19.476ZM15.0441 35.4951C15.7773 35.7128 16.3589 36.2994 16.5724 37.0366C16.9396 38.3047 16.2655 39.524 14.9926 39.8941C13.7001 40.2698 12.4252 39.4891 12.1225 38.1366C11.8788 37.0476 12.5883 35.8314 13.6592 35.5024C14.2716 35.3143 14.4322 35.3134 15.0441 35.4951ZM33.7941 35.4951C34.5273 35.7128 35.1089 36.2994 35.3224 37.0366C35.6896 38.3047 35.0155 39.524 33.7426 39.8941C32.4501 40.2698 31.1752 39.4891 30.8725 38.1366C30.6288 37.0476 31.3383 35.8314 32.4092 35.5024C33.0216 35.3143 33.1822 35.3134 33.7941 35.4951Z" fill="black"/>
</svg>
